<svg data-v-70b83f88="" version="1.0" xmlns="http://www.w3.org/2000/svg" xmlns:xlink="http://www.w3.org/1999/xlink" width="100%" height="100%" viewBox="0 0 340.000000 250.000000" preserveAspectRatio="xMidYMid meet" color-interpolation-filters="sRGB" style="margin:auto"><rect data-v-70b83f88="" x="0" y="0" width="100%" height="100%" fill="transparent" fill-opacity="1" class="background"/><rect data-v-70b83f88="" x="0" y="0" width="100%" height="100%" fill="url(#watermark)" fill-opacity="1" class="watermarklayer"/><g data-v-70b83f88="" fill="#333" class="iconlettersvg-g iconlettersvg" transform="translate(50.80084991455078,4.000373840332031)"><g><g class="tp-name"><g transform="scale(4.839999999999986)"><g transform="translate(0, 0)"><g class="name-imagesvg"><g><rect fill="#333" fill-opacity="0" stroke-width="2" x="0" y="0" width="49.25584412179063" height="50" class="image-rect"/><svg x="0" y="0" width="49.25584412179063" height="50" filtersec="colorsb2485715825" class="image-svg-svg primary" style="overflow:visible"><svg xmlns="http://www.w3.org/2000/svg" viewBox="0 0 274 278.16"><path d="M192.16 278.16h-86.23A106 106 0 0 1 0 172.23a35.31 35.31 0 0 1 70.62 0 35.35 35.35 0 0 0 35.31 35.31h86.23a35.2 35.2 0 0 0 23.25-8.74A35.31 35.31 0 0 1 262 251.91a105.88 105.88 0 0 1-69.84 26.25z" fill="#f8dc1b" opacity=".8"/><path d="M35.31 207.54A35.31 35.31 0 0 1 0 172.23v-66.3A106 106 0 0 1 105.93 0h86.23a105.16 105.16 0 0 1 62.39 20.32 35.31 35.31 0 1 1-41.63 57.05 34.91 34.91 0 0 0-20.76-6.75h-86.23a35.35 35.35 0 0 0-35.31 35.31v66.3a35.31 35.31 0 0 1-35.31 35.31z" fill="#ea79a8" opacity=".8"/></svg></svg></g></g></g></g></g></g></g><defs v-gra="od"/></svg>